

<svg width="120" height="120" viewBox="0 0 120 120" fill="none" xmlns="http://www.w3.org/2000/svg">
  <rect width="120" height="120" rx="16" fill="#439F90"/>
  <path d="M24.3428 95.0186C24.3428 95.8682 24.0322 96.5684 23.4111 97.1191C22.79 97.6699 21.8936 98.0098 20.7217 98.1387V100.046H19.5527V98.1914C18.0996 98.168 16.9072 97.9453 15.9756 97.5234V95.6689C16.4795 95.915 17.0684 96.123 17.7422 96.293C18.416 96.457 19.0195 96.542 19.5527 96.5479V93.2607L18.8145 92.9883C17.8535 92.6191 17.1504 92.1797 16.7051 91.6699C16.2656 91.1543 16.0459 90.5186 16.0459 89.7627C16.0459 88.9541 16.3594 88.2891 16.9863 87.7676C17.6191 87.2461 18.4746 86.9297 19.5527 86.8184V85.3418H20.7217V86.792C21.9111 86.833 23.0391 87.0732 24.1055 87.5127L23.4639 89.1211C22.5439 88.7578 21.6299 88.541 20.7217 88.4707V91.6699L21.3896 91.9248C22.5029 92.3525 23.2734 92.8037 23.7012 93.2783C24.1289 93.7529 24.3428 94.333 24.3428 95.0186ZM22.2686 95.1504C22.2686 94.8105 22.1484 94.5322 21.9082 94.3154C21.6738 94.0928 21.2783 93.8789 20.7217 93.6738V96.4775C21.7529 96.3193 22.2686 95.877 22.2686 95.1504ZM18.1113 89.7451C18.1113 90.0791 18.2139 90.3574 18.4189 90.5801C18.6299 90.8027 19.0078 91.0225 19.5527 91.2393V88.5059C19.084 88.5762 18.7266 88.7197 18.4805 88.9365C18.2344 89.1533 18.1113 89.4229 18.1113 89.7451ZM32.1387 99H30.0732V90.7031C30.0732 89.7129 30.0967 88.9277 30.1436 88.3477C30.0088 88.4883 29.8418 88.6436 29.6426 88.8135C29.4492 88.9834 28.793 89.5225 27.6738 90.4307L26.6367 89.1211L30.416 86.1504H32.1387V99ZM45.0674 99H36.3574V97.4355L39.6709 94.1045C40.6494 93.1025 41.2969 92.3936 41.6133 91.9775C41.9355 91.5557 42.1699 91.1602 42.3164 90.791C42.4629 90.4219 42.5361 90.0264 42.5361 89.6045C42.5361 89.0244 42.3604 88.5674 42.0088 88.2334C41.6631 87.8994 41.1826 87.7324 40.5674 87.7324C40.0752 87.7324 39.5977 87.8232 39.1348 88.0049C38.6777 88.1865 38.1475 88.5146 37.5439 88.9893L36.4277 87.627C37.1426 87.0234 37.8369 86.5957 38.5107 86.3438C39.1846 86.0918 39.9023 85.9658 40.6641 85.9658C41.8594 85.9658 42.8174 86.2793 43.5381 86.9062C44.2588 87.5273 44.6191 88.3652 44.6191 89.4199C44.6191 90 44.5137 90.5508 44.3027 91.0723C44.0977 91.5938 43.7783 92.1328 43.3447 92.6895C42.917 93.2402 42.2021 93.9873 41.2002 94.9307L38.9678 97.0928V97.1807H45.0674V99ZM51 90.9756C52.2949 90.9756 53.3203 91.3184 54.0762 92.0039C54.832 92.6895 55.21 93.624 55.21 94.8076C55.21 96.1787 54.7793 97.251 53.918 98.0244C53.0625 98.792 51.8438 99.1758 50.2617 99.1758C48.8262 99.1758 47.6982 98.9443 46.8779 98.4814V96.6094C47.3525 96.8789 47.8975 97.0869 48.5127 97.2334C49.1279 97.3799 49.6992 97.4531 50.2266 97.4531C51.1582 97.4531 51.8672 97.2451 52.3535 96.8291C52.8398 96.4131 53.083 95.8037 53.083 95.001C53.083 93.4658 52.1045 92.6982 50.1475 92.6982C49.8721 92.6982 49.5322 92.7275 49.1279 92.7861C48.7236 92.8389 48.3691 92.9004 48.0645 92.9707L47.1416 92.4258L47.6338 86.1504H54.3135V87.9873H49.4531L49.1631 91.1689C49.3682 91.1338 49.6172 91.0928 49.9102 91.0459C50.209 90.999 50.5723 90.9756 51 90.9756ZM65.6338 92.5752C65.6338 94.8076 65.2734 96.4658 64.5527 97.5498C63.8379 98.6338 62.7422 99.1758 61.2656 99.1758C59.8359 99.1758 58.752 98.6162 58.0137 97.4971C57.2754 96.3779 56.9062 94.7373 56.9062 92.5752C56.9062 90.3076 57.2637 88.6377 57.9785 87.5654C58.6992 86.4873 59.7949 85.9482 61.2656 85.9482C62.7012 85.9482 63.7881 86.5107 64.5264 87.6357C65.2646 88.7607 65.6338 90.4072 65.6338 92.5752ZM58.998 92.5752C58.998 94.3271 59.1768 95.5781 59.5342 96.3281C59.8975 97.0781 60.4746 97.4531 61.2656 97.4531C62.0566 97.4531 62.6338 97.0723 62.9971 96.3105C63.3662 95.5488 63.5508 94.3037 63.5508 92.5752C63.5508 90.8525 63.3662 89.6074 62.9971 88.8398C62.6338 88.0664 62.0566 87.6797 61.2656 87.6797C60.4746 87.6797 59.8975 88.0576 59.5342 88.8135C59.1768 89.5693 58.998 90.8232 58.998 92.5752Z" fill="white"/>
  <path d="M16.1777 71V62.4336H17.1738V71H16.1777ZM23.7773 71V66.8457C23.7773 66.3223 23.6582 65.9316 23.4199 65.6738C23.1816 65.416 22.8086 65.2871 22.3008 65.2871C21.6289 65.2871 21.1367 65.4688 20.8242 65.832C20.5117 66.1953 20.3555 66.7949 20.3555 67.6309V71H19.3828V64.5781H20.1738L20.332 65.457H20.3789C20.5781 65.1406 20.8574 64.8965 21.2168 64.7246C21.5762 64.5488 21.9766 64.4609 22.418 64.4609C23.1914 64.4609 23.7734 64.6484 24.1641 65.0234C24.5547 65.3945 24.75 65.9902 24.75 66.8105V71H23.7773ZM29.3203 71.1172C28.3906 71.1172 27.6699 70.832 27.1582 70.2617C26.6504 69.6875 26.3965 68.877 26.3965 67.8301C26.3965 66.7559 26.6543 65.9258 27.1699 65.3398C27.6895 64.7539 28.4277 64.4609 29.3848 64.4609C29.6934 64.4609 30.002 64.4941 30.3105 64.5605C30.6191 64.627 30.8613 64.7051 31.0371 64.7949L30.7383 65.6211C30.5234 65.5352 30.2891 65.4648 30.0352 65.4102C29.7812 65.3516 29.5566 65.3223 29.3613 65.3223C28.0566 65.3223 27.4043 66.1543 27.4043 67.8184C27.4043 68.6074 27.5625 69.2129 27.8789 69.6348C28.1992 70.0566 28.6719 70.2676 29.2969 70.2676C29.832 70.2676 30.3809 70.1523 30.9434 69.9219V70.7832C30.5137 71.0059 29.9727 71.1172 29.3203 71.1172ZM38.0156 67.7832C38.0156 68.8301 37.752 69.6484 37.2246 70.2383C36.6973 70.8242 35.9688 71.1172 35.0391 71.1172C34.4648 71.1172 33.9551 70.9824 33.5098 70.7129C33.0645 70.4434 32.7207 70.0566 32.4785 69.5527C32.2363 69.0488 32.1152 68.459 32.1152 67.7832C32.1152 66.7363 32.377 65.9219 32.9004 65.3398C33.4238 64.7539 34.1504 64.4609 35.0801 64.4609C35.9785 64.4609 36.6914 64.7598 37.2188 65.3574C37.75 65.9551 38.0156 66.7637 38.0156 67.7832ZM33.123 67.7832C33.123 68.6035 33.2871 69.2285 33.6152 69.6582C33.9434 70.0879 34.4258 70.3027 35.0625 70.3027C35.6992 70.3027 36.1816 70.0898 36.5098 69.6641C36.8418 69.2344 37.0078 68.6074 37.0078 67.7832C37.0078 66.9668 36.8418 66.3477 36.5098 65.9258C36.1816 65.5 35.6953 65.2871 35.0508 65.2871C34.4141 65.2871 33.9336 65.4961 33.6094 65.9141C33.2852 66.332 33.123 66.9551 33.123 67.7832ZM47.9121 71V66.8223C47.9121 66.3105 47.8027 65.9277 47.584 65.6738C47.3652 65.416 47.0254 65.2871 46.5645 65.2871C45.959 65.2871 45.5117 65.4609 45.2227 65.8086C44.9336 66.1562 44.7891 66.6914 44.7891 67.4141V71H43.8164V66.8223C43.8164 66.3105 43.707 65.9277 43.4883 65.6738C43.2695 65.416 42.9277 65.2871 42.4629 65.2871C41.8535 65.2871 41.4062 65.4707 41.1211 65.8379C40.8398 66.2012 40.6992 66.7988 40.6992 67.6309V71H39.7266V64.5781H40.5176L40.6758 65.457H40.7227C40.9062 65.1445 41.1641 64.9004 41.4961 64.7246C41.832 64.5488 42.207 64.4609 42.6211 64.4609C43.625 64.4609 44.2812 64.8242 44.5898 65.5508H44.6367C44.8281 65.2148 45.1055 64.9492 45.4688 64.7539C45.832 64.5586 46.2461 64.4609 46.7109 64.4609C47.4375 64.4609 47.9805 64.6484 48.3398 65.0234C48.7031 65.3945 48.8848 65.9902 48.8848 66.8105V71H47.9121ZM53.6074 71.1172C52.6582 71.1172 51.9082 70.8281 51.3574 70.25C50.8105 69.6719 50.5371 68.8691 50.5371 67.8418C50.5371 66.8066 50.791 65.9844 51.2988 65.375C51.8105 64.7656 52.4961 64.4609 53.3555 64.4609C54.1602 64.4609 54.7969 64.7266 55.2656 65.2578C55.7344 65.7852 55.9688 66.4824 55.9688 67.3496V67.9648H51.5449C51.5645 68.7188 51.7539 69.291 52.1133 69.6816C52.4766 70.0723 52.9863 70.2676 53.6426 70.2676C54.334 70.2676 55.0176 70.123 55.6934 69.834V70.7012C55.3496 70.8496 55.0234 70.9551 54.7148 71.0176C54.4102 71.084 54.041 71.1172 53.6074 71.1172ZM53.3438 65.2754C52.8281 65.2754 52.416 65.4434 52.1074 65.7793C51.8027 66.1152 51.623 66.5801 51.5684 67.1738H54.9258C54.9258 66.5605 54.7891 66.0918 54.5156 65.7676C54.2422 65.4395 53.8516 65.2754 53.3438 65.2754Z" fill="white"/>
  <rect x="15" y="14" width="30" height="30" rx="8" fill="white"/>
  <path d="M31.5366 29.1636C33.5116 29.1636 35.1182 27.5568 35.1182 25.5818C35.1182 23.6068 33.5116 22 31.5366 22C29.5616 22 27.9548 23.6068 27.9548 25.5818C27.9548 27.5568 29.5616 29.1636 31.5366 29.1636ZM31.1125 23.4764V23.3792C31.1125 23.1447 31.3022 22.955 31.5366 22.955C31.7708 22.955 31.9608 23.1447 31.9608 23.3792V23.477C32.4656 23.5853 32.8454 24.035 32.8454 24.5717C32.8454 24.8058 32.6554 24.9959 32.4212 24.9959C32.1868 24.9959 31.997 24.8058 31.997 24.5717C31.997 24.4221 31.8751 24.3002 31.7255 24.3002H31.3452C31.1956 24.3002 31.0737 24.4221 31.0737 24.5717C31.0737 24.6574 31.1147 24.7388 31.1837 24.7897L31.5366 25.051L32.3941 25.6856C32.6757 25.894 32.8454 26.2274 32.8477 26.5781V26.582C32.8496 26.8812 32.7351 27.1635 32.5247 27.3764C32.3686 27.5345 32.1735 27.6405 31.9608 27.6852V27.7845C31.9608 28.0189 31.7708 28.2086 31.5366 28.2086C31.3022 28.2086 31.1125 28.0189 31.1125 27.7845V27.6866C30.9055 27.6425 30.7151 27.5407 30.5613 27.3886C30.3484 27.1784 30.2302 26.8979 30.2285 26.5987C30.227 26.3646 30.4157 26.1734 30.6498 26.172H30.6526C30.8857 26.172 31.0754 26.3603 31.0768 26.5936C31.0774 26.74 31.1952 26.8634 31.3497 26.8634C31.5841 26.862 31.4968 26.8625 31.7295 26.8612C31.8801 26.86 32.0004 26.7378 31.9993 26.5877V26.5837C31.9987 26.4989 31.9577 26.418 31.8893 26.3674L31.5366 26.1064L30.6789 25.4718C30.395 25.2614 30.2254 24.9249 30.2254 24.5717C30.2254 24.0338 30.6063 23.5839 31.1125 23.4764Z" fill="#439F90"/>
  <path d="M25.7329 31.2017C25.6241 31.0132 25.3826 30.9476 25.1929 31.057L23.1976 32.2088C23.0087 32.3182 22.9439 32.5598 23.053 32.749L25.0923 36.2811C25.2014 36.47 25.4429 36.5349 25.6322 36.4258L27.6275 35.2737C27.8167 35.1646 27.8813 34.923 27.7722 34.7338L25.7329 31.2017Z" fill="#439F90"/>
  <path d="M37.1661 30.4967C36.9741 30.23 36.6025 30.1698 36.3361 30.3618C35.5279 30.944 33.976 32.0622 33.8527 32.1513C33.7958 32.1996 33.7362 32.2435 33.674 32.2822C33.4299 32.4357 33.1468 32.5178 32.8513 32.5178H30.8195C30.5853 32.5178 30.3953 32.328 30.3953 32.0936C30.3953 31.8589 30.5856 31.6694 30.8195 31.6694H32.9924C33.3117 31.6694 33.5674 31.4036 33.5541 31.0837C33.5416 30.7803 33.2826 30.545 32.9789 30.545H31.3248C31.2128 30.4265 31.0901 30.3179 30.9586 30.2209C30.5064 29.8875 29.9476 29.6904 29.3428 29.6904C28.2673 29.6904 27.1972 30.368 26.7535 31.2724L28.4887 34.2776H31.7436C32.3827 34.2776 33.0122 34.1141 33.5662 33.7954C33.7582 33.6851 33.9638 33.5525 34.1867 33.3924C35.1204 32.7216 37.0295 31.3281 37.031 31.3272C37.2979 31.1355 37.3584 30.7633 37.1661 30.4967Z" fill="#439F90"/>
</svg>
